<mxfile host="Electron" agent="Mozilla/5.0 (Windows NT 10.0; Win64; x64) AppleWebKit/537.36 (KHTML, like Gecko) draw.io/24.7.17 Chrome/128.0.6613.36 Electron/32.0.1 Safari/537.36" version="24.7.17" pages="5">
  <diagram name="EquationSolver" id="v86uxaaGLmw6JI9T3la1">
    <mxGraphModel dx="864" dy="508" grid="1" gridSize="10" guides="1" tooltips="1" connect="1" arrows="1" fold="1" page="1" pageScale="1" pageWidth="827" pageHeight="1169" math="0" shadow="0">
      <root>
        <mxCell id="0" />
        <mxCell id="1" parent="0" />
        <mxCell id="onENE0Vn3GNNBzIx0E8R-146" value="&lt;div align=&quot;center&quot;&gt;&lt;font style=&quot;font-size: 18px&quot;&gt;Output&lt;/font&gt;&lt;br&gt;&lt;/div&gt;" style="rounded=1;whiteSpace=wrap;html=1;strokeWidth=2;fillColor=#CFE7F5;dashed=1;strokeColor=#3465A4;verticalAlign=top;align=center;spacingLeft=0;" parent="1" vertex="1">
          <mxGeometry x="1413.5" y="361.5" width="110" height="320" as="geometry" />
        </mxCell>
        <mxCell id="onENE0Vn3GNNBzIx0E8R-145" value="&lt;div align=&quot;center&quot;&gt;&lt;font style=&quot;font-size: 18px&quot;&gt;Input&lt;/font&gt;&lt;br&gt;&lt;/div&gt;" style="rounded=1;whiteSpace=wrap;html=1;strokeWidth=2;fillColor=#CFE7F5;dashed=1;strokeColor=#3465A4;verticalAlign=top;align=center;spacingLeft=0;" parent="1" vertex="1">
          <mxGeometry x="683.5" y="360" width="110" height="320" as="geometry" />
        </mxCell>
        <mxCell id="onENE0Vn3GNNBzIx0E8R-144" value="&lt;div align=&quot;center&quot;&gt;&lt;font style=&quot;font-size: 18px&quot;&gt;Working Memory&lt;/font&gt;&lt;br&gt;&lt;/div&gt;" style="rounded=1;whiteSpace=wrap;html=1;strokeWidth=2;fillColor=#CFE7F5;dashed=1;strokeColor=#3465A4;verticalAlign=top;align=center;spacingLeft=0;" parent="1" vertex="1">
          <mxGeometry x="1048.5" y="360" width="110" height="320" as="geometry" />
        </mxCell>
        <mxCell id="onENE0Vn3GNNBzIx0E8R-88" value="" style="group" parent="1" vertex="1" connectable="0">
          <mxGeometry x="840" y="450" width="163" height="60" as="geometry" />
        </mxCell>
        <mxCell id="onENE0Vn3GNNBzIx0E8R-89" value="SolveEquation" style="rounded=1;whiteSpace=wrap;html=1;strokeWidth=3;fillColor=#ffcc99;strokeColor=#36393d;" parent="onENE0Vn3GNNBzIx0E8R-88" vertex="1">
          <mxGeometry x="15.49647887323944" width="132.00704225352115" height="60" as="geometry" />
        </mxCell>
        <mxCell id="onENE0Vn3GNNBzIx0E8R-90" value="&lt;font style=&quot;font-size: 8px;&quot;&gt;O&lt;/font&gt;" style="whiteSpace=wrap;html=1;strokeWidth=2;fillColor=#ffcccc;strokeColor=#36393d;fontSize=8;" parent="onENE0Vn3GNNBzIx0E8R-88" vertex="1">
          <mxGeometry x="147.50352112676057" y="9.999999999999998" width="15.49647887323944" height="15" as="geometry" />
        </mxCell>
        <mxCell id="onENE0Vn3GNNBzIx0E8R-91" value="&lt;font style=&quot;font-size: 8px;&quot;&gt;A&lt;/font&gt;" style="whiteSpace=wrap;html=1;strokeWidth=2;fillColor=#ffcccc;strokeColor=#36393d;fontSize=8;" parent="onENE0Vn3GNNBzIx0E8R-88" vertex="1">
          <mxGeometry x="147.50352112676057" y="34.99999999999999" width="15.49647887323944" height="15" as="geometry" />
        </mxCell>
        <mxCell id="onENE0Vn3GNNBzIx0E8R-92" value="&lt;font style=&quot;font-size: 8px; line-height: 120%;&quot;&gt;LI&lt;/font&gt;" style="whiteSpace=wrap;html=1;strokeWidth=2;fillColor=#ffcccc;strokeColor=#36393d;verticalAlign=middle;spacing=0;fontSize=8;" parent="onENE0Vn3GNNBzIx0E8R-88" vertex="1">
          <mxGeometry y="9.999999999999998" width="15.49647887323944" height="15" as="geometry" />
        </mxCell>
        <mxCell id="onENE0Vn3GNNBzIx0E8R-93" value="&lt;font style=&quot;font-size: 8px;&quot;&gt;GI&lt;/font&gt;" style="whiteSpace=wrap;html=1;strokeWidth=2;fillColor=#ffcccc;strokeColor=#36393d;fontSize=8;" parent="onENE0Vn3GNNBzIx0E8R-88" vertex="1">
          <mxGeometry y="34.99999999999999" width="15.49647887323944" height="15" as="geometry" />
        </mxCell>
        <mxCell id="onENE0Vn3GNNBzIx0E8R-94" value="" style="group" parent="1" vertex="1" connectable="0">
          <mxGeometry x="840" y="555" width="163" height="60" as="geometry" />
        </mxCell>
        <mxCell id="onENE0Vn3GNNBzIx0E8R-95" value="SolveEquation" style="rounded=1;whiteSpace=wrap;html=1;strokeWidth=3;fillColor=#ffcc99;strokeColor=#36393d;" parent="onENE0Vn3GNNBzIx0E8R-94" vertex="1">
          <mxGeometry x="15.49647887323944" width="132.00704225352115" height="60" as="geometry" />
        </mxCell>
        <mxCell id="onENE0Vn3GNNBzIx0E8R-96" value="&lt;font style=&quot;font-size: 8px;&quot;&gt;O&lt;/font&gt;" style="whiteSpace=wrap;html=1;strokeWidth=2;fillColor=#ffcccc;strokeColor=#36393d;fontSize=8;" parent="onENE0Vn3GNNBzIx0E8R-94" vertex="1">
          <mxGeometry x="147.50352112676057" y="9.999999999999998" width="15.49647887323944" height="15" as="geometry" />
        </mxCell>
        <mxCell id="onENE0Vn3GNNBzIx0E8R-97" value="&lt;font style=&quot;font-size: 8px;&quot;&gt;A&lt;/font&gt;" style="whiteSpace=wrap;html=1;strokeWidth=2;fillColor=#ffcccc;strokeColor=#36393d;fontSize=8;" parent="onENE0Vn3GNNBzIx0E8R-94" vertex="1">
          <mxGeometry x="147.50352112676057" y="34.99999999999999" width="15.49647887323944" height="15" as="geometry" />
        </mxCell>
        <mxCell id="onENE0Vn3GNNBzIx0E8R-98" value="&lt;font style=&quot;font-size: 8px; line-height: 120%;&quot;&gt;LI&lt;/font&gt;" style="whiteSpace=wrap;html=1;strokeWidth=2;fillColor=#ffcccc;strokeColor=#36393d;verticalAlign=middle;spacing=0;fontSize=8;" parent="onENE0Vn3GNNBzIx0E8R-94" vertex="1">
          <mxGeometry y="9.999999999999998" width="15.49647887323944" height="15" as="geometry" />
        </mxCell>
        <mxCell id="onENE0Vn3GNNBzIx0E8R-99" value="&lt;font style=&quot;font-size: 8px;&quot;&gt;GI&lt;/font&gt;" style="whiteSpace=wrap;html=1;strokeWidth=2;fillColor=#ffcccc;strokeColor=#36393d;fontSize=8;" parent="onENE0Vn3GNNBzIx0E8R-94" vertex="1">
          <mxGeometry y="34.99999999999999" width="15.49647887323944" height="15" as="geometry" />
        </mxCell>
        <mxCell id="onENE0Vn3GNNBzIx0E8R-100" value="" style="group" parent="1" vertex="1" connectable="0">
          <mxGeometry x="1205" y="510" width="163" height="60" as="geometry" />
        </mxCell>
        <mxCell id="onENE0Vn3GNNBzIx0E8R-101" value="JoinResults" style="rounded=1;whiteSpace=wrap;html=1;strokeWidth=3;fillColor=#ffcc99;strokeColor=#36393d;" parent="onENE0Vn3GNNBzIx0E8R-100" vertex="1">
          <mxGeometry x="15.49647887323944" width="132.00704225352115" height="60" as="geometry" />
        </mxCell>
        <mxCell id="onENE0Vn3GNNBzIx0E8R-102" value="&lt;font style=&quot;font-size: 8px;&quot;&gt;O&lt;/font&gt;" style="whiteSpace=wrap;html=1;strokeWidth=2;fillColor=#ffcccc;strokeColor=#36393d;fontSize=8;" parent="onENE0Vn3GNNBzIx0E8R-100" vertex="1">
          <mxGeometry x="147.50352112676057" y="9.999999999999998" width="15.49647887323944" height="15" as="geometry" />
        </mxCell>
        <mxCell id="onENE0Vn3GNNBzIx0E8R-103" value="&lt;font style=&quot;font-size: 8px;&quot;&gt;A&lt;/font&gt;" style="whiteSpace=wrap;html=1;strokeWidth=2;fillColor=#ffcccc;strokeColor=#36393d;fontSize=8;" parent="onENE0Vn3GNNBzIx0E8R-100" vertex="1">
          <mxGeometry x="147.50352112676057" y="34.99999999999999" width="15.49647887323944" height="15" as="geometry" />
        </mxCell>
        <mxCell id="onENE0Vn3GNNBzIx0E8R-104" value="&lt;font style=&quot;font-size: 8px; line-height: 120%;&quot;&gt;LI&lt;/font&gt;" style="whiteSpace=wrap;html=1;strokeWidth=2;fillColor=#ffcccc;strokeColor=#36393d;verticalAlign=middle;spacing=0;fontSize=8;" parent="onENE0Vn3GNNBzIx0E8R-100" vertex="1">
          <mxGeometry y="9.999999999999998" width="15.49647887323944" height="15" as="geometry" />
        </mxCell>
        <mxCell id="onENE0Vn3GNNBzIx0E8R-105" value="&lt;font style=&quot;font-size: 8px;&quot;&gt;GI&lt;/font&gt;" style="whiteSpace=wrap;html=1;strokeWidth=2;fillColor=#ffcccc;strokeColor=#36393d;fontSize=8;" parent="onENE0Vn3GNNBzIx0E8R-100" vertex="1">
          <mxGeometry y="34.99999999999999" width="15.49647887323944" height="15" as="geometry" />
        </mxCell>
        <mxCell id="onENE0Vn3GNNBzIx0E8R-140" style="edgeStyle=orthogonalEdgeStyle;rounded=0;orthogonalLoop=1;jettySize=auto;html=1;entryX=0;entryY=0.5;entryDx=0;entryDy=0;" parent="1" source="onENE0Vn3GNNBzIx0E8R-107" target="onENE0Vn3GNNBzIx0E8R-92" edge="1">
          <mxGeometry relative="1" as="geometry" />
        </mxCell>
        <mxCell id="onENE0Vn3GNNBzIx0E8R-142" style="edgeStyle=orthogonalEdgeStyle;rounded=0;orthogonalLoop=1;jettySize=auto;html=1;entryX=0;entryY=0.5;entryDx=0;entryDy=0;" parent="1" source="onENE0Vn3GNNBzIx0E8R-107" target="onENE0Vn3GNNBzIx0E8R-98" edge="1">
          <mxGeometry relative="1" as="geometry" />
        </mxCell>
        <mxCell id="onENE0Vn3GNNBzIx0E8R-107" value="&lt;font style=&quot;font-size: 11px&quot;&gt;a&lt;br&gt;&lt;/font&gt;" style="ellipse;whiteSpace=wrap;html=1;strokeColor=#36393d;strokeWidth=2;fillColor=#ffff88;fontSize=8;align=center;verticalAlign=top;labelPosition=center;verticalLabelPosition=bottom;" parent="1" vertex="1">
          <mxGeometry x="710" y="390" width="57" height="60" as="geometry" />
        </mxCell>
        <mxCell id="onENE0Vn3GNNBzIx0E8R-137" style="edgeStyle=orthogonalEdgeStyle;rounded=0;orthogonalLoop=1;jettySize=auto;html=1;entryX=0;entryY=0.5;entryDx=0;entryDy=0;" parent="1" source="onENE0Vn3GNNBzIx0E8R-108" target="onENE0Vn3GNNBzIx0E8R-92" edge="1">
          <mxGeometry relative="1" as="geometry" />
        </mxCell>
        <mxCell id="onENE0Vn3GNNBzIx0E8R-138" style="edgeStyle=orthogonalEdgeStyle;rounded=0;orthogonalLoop=1;jettySize=auto;html=1;entryX=0;entryY=0.5;entryDx=0;entryDy=0;" parent="1" source="onENE0Vn3GNNBzIx0E8R-108" target="onENE0Vn3GNNBzIx0E8R-98" edge="1">
          <mxGeometry relative="1" as="geometry" />
        </mxCell>
        <mxCell id="onENE0Vn3GNNBzIx0E8R-108" value="&lt;font style=&quot;font-size: 11px&quot;&gt;b&lt;br&gt;&lt;/font&gt;" style="ellipse;whiteSpace=wrap;html=1;strokeColor=#36393d;strokeWidth=2;fillColor=#ffff88;fontSize=8;align=center;verticalAlign=top;labelPosition=center;verticalLabelPosition=bottom;" parent="1" vertex="1">
          <mxGeometry x="710" y="490" width="57" height="60" as="geometry" />
        </mxCell>
        <mxCell id="onENE0Vn3GNNBzIx0E8R-139" style="edgeStyle=orthogonalEdgeStyle;rounded=0;orthogonalLoop=1;jettySize=auto;html=1;entryX=0;entryY=0.5;entryDx=0;entryDy=0;" parent="1" source="onENE0Vn3GNNBzIx0E8R-109" target="onENE0Vn3GNNBzIx0E8R-98" edge="1">
          <mxGeometry relative="1" as="geometry" />
        </mxCell>
        <mxCell id="onENE0Vn3GNNBzIx0E8R-141" style="edgeStyle=orthogonalEdgeStyle;rounded=0;orthogonalLoop=1;jettySize=auto;html=1;entryX=0;entryY=0.5;entryDx=0;entryDy=0;" parent="1" source="onENE0Vn3GNNBzIx0E8R-109" target="onENE0Vn3GNNBzIx0E8R-92" edge="1">
          <mxGeometry relative="1" as="geometry" />
        </mxCell>
        <mxCell id="onENE0Vn3GNNBzIx0E8R-109" value="&lt;font style=&quot;font-size: 11px&quot;&gt;c&lt;br&gt;&lt;/font&gt;" style="ellipse;whiteSpace=wrap;html=1;strokeColor=#36393d;strokeWidth=2;fillColor=#ffff88;fontSize=8;align=center;verticalAlign=top;labelPosition=center;verticalLabelPosition=bottom;" parent="1" vertex="1">
          <mxGeometry x="710" y="590" width="57" height="60" as="geometry" />
        </mxCell>
        <mxCell id="onENE0Vn3GNNBzIx0E8R-124" style="edgeStyle=orthogonalEdgeStyle;rounded=0;orthogonalLoop=1;jettySize=auto;html=1;entryX=0;entryY=0.5;entryDx=0;entryDy=0;" parent="1" source="onENE0Vn3GNNBzIx0E8R-120" target="onENE0Vn3GNNBzIx0E8R-104" edge="1">
          <mxGeometry relative="1" as="geometry" />
        </mxCell>
        <mxCell id="onENE0Vn3GNNBzIx0E8R-120" value="&lt;font style=&quot;font-size: 11px&quot;&gt;x1&lt;br&gt;&lt;/font&gt;" style="ellipse;whiteSpace=wrap;html=1;strokeColor=#36393d;strokeWidth=2;fillColor=#ffff88;fontSize=8;align=center;verticalAlign=top;labelPosition=center;verticalLabelPosition=bottom;" parent="1" vertex="1">
          <mxGeometry x="1075" y="437.5" width="57" height="60" as="geometry" />
        </mxCell>
        <mxCell id="onENE0Vn3GNNBzIx0E8R-125" style="edgeStyle=orthogonalEdgeStyle;rounded=0;orthogonalLoop=1;jettySize=auto;html=1;entryX=0;entryY=0.5;entryDx=0;entryDy=0;" parent="1" source="onENE0Vn3GNNBzIx0E8R-121" target="onENE0Vn3GNNBzIx0E8R-104" edge="1">
          <mxGeometry relative="1" as="geometry" />
        </mxCell>
        <mxCell id="onENE0Vn3GNNBzIx0E8R-121" value="x2" style="ellipse;whiteSpace=wrap;html=1;strokeColor=#36393d;strokeWidth=2;fillColor=#ffff88;fontSize=8;align=center;verticalAlign=top;labelPosition=center;verticalLabelPosition=bottom;" parent="1" vertex="1">
          <mxGeometry x="1075" y="542.5" width="57" height="60" as="geometry" />
        </mxCell>
        <mxCell id="onENE0Vn3GNNBzIx0E8R-122" style="edgeStyle=orthogonalEdgeStyle;rounded=0;orthogonalLoop=1;jettySize=auto;html=1;" parent="1" source="onENE0Vn3GNNBzIx0E8R-90" target="onENE0Vn3GNNBzIx0E8R-120" edge="1">
          <mxGeometry relative="1" as="geometry" />
        </mxCell>
        <mxCell id="onENE0Vn3GNNBzIx0E8R-123" style="edgeStyle=orthogonalEdgeStyle;rounded=0;orthogonalLoop=1;jettySize=auto;html=1;" parent="1" source="onENE0Vn3GNNBzIx0E8R-96" target="onENE0Vn3GNNBzIx0E8R-121" edge="1">
          <mxGeometry relative="1" as="geometry" />
        </mxCell>
        <mxCell id="onENE0Vn3GNNBzIx0E8R-126" value="&lt;font style=&quot;font-size: 11px&quot;&gt;result&lt;br&gt;&lt;/font&gt;" style="ellipse;whiteSpace=wrap;html=1;strokeColor=#36393d;strokeWidth=2;fillColor=#ffff88;fontSize=8;align=center;verticalAlign=top;labelPosition=center;verticalLabelPosition=bottom;" parent="1" vertex="1">
          <mxGeometry x="1440" y="497.5" width="57" height="60" as="geometry" />
        </mxCell>
        <mxCell id="onENE0Vn3GNNBzIx0E8R-127" style="edgeStyle=orthogonalEdgeStyle;rounded=0;orthogonalLoop=1;jettySize=auto;html=1;" parent="1" source="onENE0Vn3GNNBzIx0E8R-102" target="onENE0Vn3GNNBzIx0E8R-126" edge="1">
          <mxGeometry relative="1" as="geometry" />
        </mxCell>
      </root>
    </mxGraphModel>
  </diagram>
  <diagram id="-dzhwysHjcEMMUFAOHBV" name="Codelet">
    <mxGraphModel dx="864" dy="508" grid="1" gridSize="10" guides="1" tooltips="1" connect="1" arrows="1" fold="1" page="1" pageScale="1" pageWidth="827" pageHeight="1169" math="0" shadow="0">
      <root>
        <mxCell id="0" />
        <mxCell id="1" parent="0" />
        <mxCell id="-ajApf5cxef_VI8tj3bv-1" value="" style="group" vertex="1" connectable="0" parent="1">
          <mxGeometry x="332" y="200" width="163" height="60" as="geometry" />
        </mxCell>
        <mxCell id="-ajApf5cxef_VI8tj3bv-2" value="Codelet" style="rounded=1;whiteSpace=wrap;html=1;strokeWidth=3;fillColor=#ffcc99;strokeColor=#36393d;" vertex="1" parent="-ajApf5cxef_VI8tj3bv-1">
          <mxGeometry x="15.49647887323944" width="132.00704225352115" height="60" as="geometry" />
        </mxCell>
        <mxCell id="-ajApf5cxef_VI8tj3bv-3" value="&lt;font style=&quot;font-size: 8px;&quot;&gt;O&lt;/font&gt;" style="whiteSpace=wrap;html=1;strokeWidth=2;fillColor=#ffcccc;strokeColor=#36393d;fontSize=8;" vertex="1" parent="-ajApf5cxef_VI8tj3bv-1">
          <mxGeometry x="147.50352112676057" y="9.999999999999998" width="15.49647887323944" height="15" as="geometry" />
        </mxCell>
        <mxCell id="-ajApf5cxef_VI8tj3bv-4" value="&lt;font style=&quot;font-size: 8px;&quot;&gt;A&lt;/font&gt;" style="whiteSpace=wrap;html=1;strokeWidth=2;fillColor=#ffcccc;strokeColor=#36393d;fontSize=8;" vertex="1" parent="-ajApf5cxef_VI8tj3bv-1">
          <mxGeometry x="147.50352112676057" y="34.99999999999999" width="15.49647887323944" height="15" as="geometry" />
        </mxCell>
        <mxCell id="-ajApf5cxef_VI8tj3bv-5" value="&lt;font style=&quot;font-size: 8px; line-height: 120%;&quot;&gt;LI&lt;/font&gt;" style="whiteSpace=wrap;html=1;strokeWidth=2;fillColor=#ffcccc;strokeColor=#36393d;verticalAlign=middle;spacing=0;fontSize=8;" vertex="1" parent="-ajApf5cxef_VI8tj3bv-1">
          <mxGeometry y="9.999999999999998" width="15.49647887323944" height="15" as="geometry" />
        </mxCell>
        <mxCell id="-ajApf5cxef_VI8tj3bv-6" value="&lt;font style=&quot;font-size: 8px;&quot;&gt;GI&lt;/font&gt;" style="whiteSpace=wrap;html=1;strokeWidth=2;fillColor=#ffcccc;strokeColor=#36393d;fontSize=8;" vertex="1" parent="-ajApf5cxef_VI8tj3bv-1">
          <mxGeometry y="34.99999999999999" width="15.49647887323944" height="15" as="geometry" />
        </mxCell>
      </root>
    </mxGraphModel>
  </diagram>
  <diagram id="Vlgl7V4hsBB-3GrTfN2E" name="Memory">
    <mxGraphModel dx="864" dy="508" grid="1" gridSize="10" guides="1" tooltips="1" connect="1" arrows="1" fold="1" page="1" pageScale="1" pageWidth="827" pageHeight="1169" math="0" shadow="0">
      <root>
        <mxCell id="0" />
        <mxCell id="1" parent="0" />
        <mxCell id="jXtwetHHimpKoNhYUVGK-1" value="&lt;font style=&quot;font-size: 11px&quot;&gt;Memory Object&lt;br&gt;&lt;/font&gt;" style="ellipse;whiteSpace=wrap;html=1;strokeColor=#36393d;strokeWidth=2;fillColor=#ffff88;fontSize=8;align=center;verticalAlign=top;labelPosition=center;verticalLabelPosition=bottom;" vertex="1" parent="1">
          <mxGeometry x="310" y="210" width="57" height="60" as="geometry" />
        </mxCell>
      </root>
    </mxGraphModel>
  </diagram>
  <diagram id="jDM8BM5JxCJhLHtQrI1f" name="MemoryGroup">
    <mxGraphModel dx="864" dy="508" grid="1" gridSize="10" guides="1" tooltips="1" connect="1" arrows="1" fold="1" page="1" pageScale="1" pageWidth="827" pageHeight="1169" math="0" shadow="0">
      <root>
        <mxCell id="0" />
        <mxCell id="1" parent="0" />
        <mxCell id="P3ZxzfCLmsgI2B3Dnbw_-1" value="&lt;div align=&quot;center&quot;&gt;&lt;font style=&quot;font-size: 18px&quot;&gt;Memory Group&lt;/font&gt;&lt;br&gt;&lt;/div&gt;" style="rounded=1;whiteSpace=wrap;html=1;strokeWidth=2;fillColor=#CFE7F5;dashed=1;strokeColor=#3465A4;verticalAlign=top;align=center;spacingLeft=0;" vertex="1" parent="1">
          <mxGeometry x="380" y="180" width="331" height="290" as="geometry" />
        </mxCell>
        <mxCell id="P3ZxzfCLmsgI2B3Dnbw_-2" value="&lt;font style=&quot;font-size: 11px&quot;&gt;Memory Object&lt;br&gt;&lt;/font&gt;" style="ellipse;whiteSpace=wrap;html=1;strokeColor=#36393d;strokeWidth=2;fillColor=#ffff88;fontSize=8;align=center;verticalAlign=top;labelPosition=center;verticalLabelPosition=bottom;" vertex="1" parent="1">
          <mxGeometry x="517" y="295" width="57" height="60" as="geometry" />
        </mxCell>
      </root>
    </mxGraphModel>
  </diagram>
  <diagram id="_14PkxvJazsqETwE-Iap" name="Página-5">
    <mxGraphModel dx="346" dy="203" grid="1" gridSize="10" guides="1" tooltips="1" connect="1" arrows="1" fold="1" page="1" pageScale="1" pageWidth="827" pageHeight="1169" math="0" shadow="0">
      <root>
        <mxCell id="0" />
        <mxCell id="1" parent="0" />
        <mxCell id="U6-LrCOOgE8kTnZUsPgH-1" value="" style="group" vertex="1" connectable="0" parent="1">
          <mxGeometry x="502" y="130" width="163" height="60" as="geometry" />
        </mxCell>
        <mxCell id="U6-LrCOOgE8kTnZUsPgH-2" value="My Codelet" style="rounded=1;whiteSpace=wrap;html=1;strokeWidth=3;fillColor=#ffcc99;strokeColor=#36393d;" vertex="1" parent="U6-LrCOOgE8kTnZUsPgH-1">
          <mxGeometry x="15.49647887323944" width="132.00704225352115" height="60" as="geometry" />
        </mxCell>
        <mxCell id="U6-LrCOOgE8kTnZUsPgH-3" value="&lt;font style=&quot;font-size: 8px;&quot;&gt;O&lt;/font&gt;" style="whiteSpace=wrap;html=1;strokeWidth=2;fillColor=#ffcccc;strokeColor=#36393d;fontSize=8;" vertex="1" parent="U6-LrCOOgE8kTnZUsPgH-1">
          <mxGeometry x="147.50352112676057" y="9.999999999999998" width="15.49647887323944" height="15" as="geometry" />
        </mxCell>
        <mxCell id="U6-LrCOOgE8kTnZUsPgH-4" value="&lt;font style=&quot;font-size: 8px;&quot;&gt;A&lt;/font&gt;" style="whiteSpace=wrap;html=1;strokeWidth=2;fillColor=#ffcccc;strokeColor=#36393d;fontSize=8;" vertex="1" parent="U6-LrCOOgE8kTnZUsPgH-1">
          <mxGeometry x="147.50352112676057" y="34.99999999999999" width="15.49647887323944" height="15" as="geometry" />
        </mxCell>
        <mxCell id="U6-LrCOOgE8kTnZUsPgH-5" value="&lt;font style=&quot;font-size: 8px; line-height: 120%;&quot;&gt;LI&lt;/font&gt;" style="whiteSpace=wrap;html=1;strokeWidth=2;fillColor=#ffcccc;strokeColor=#36393d;verticalAlign=middle;spacing=0;fontSize=8;" vertex="1" parent="U6-LrCOOgE8kTnZUsPgH-1">
          <mxGeometry y="9.999999999999998" width="15.49647887323944" height="15" as="geometry" />
        </mxCell>
        <mxCell id="U6-LrCOOgE8kTnZUsPgH-6" value="&lt;font style=&quot;font-size: 8px;&quot;&gt;GI&lt;/font&gt;" style="whiteSpace=wrap;html=1;strokeWidth=2;fillColor=#ffcccc;strokeColor=#36393d;fontSize=8;" vertex="1" parent="U6-LrCOOgE8kTnZUsPgH-1">
          <mxGeometry y="34.99999999999999" width="15.49647887323944" height="15" as="geometry" />
        </mxCell>
        <mxCell id="U6-LrCOOgE8kTnZUsPgH-9" style="edgeStyle=orthogonalEdgeStyle;rounded=0;orthogonalLoop=1;jettySize=auto;html=1;entryX=0;entryY=0.5;entryDx=0;entryDy=0;" edge="1" parent="1" source="U6-LrCOOgE8kTnZUsPgH-7" target="U6-LrCOOgE8kTnZUsPgH-5">
          <mxGeometry relative="1" as="geometry" />
        </mxCell>
        <mxCell id="U6-LrCOOgE8kTnZUsPgH-7" value="&lt;font style=&quot;font-size: 11px&quot;&gt;Input&lt;br&gt;&lt;/font&gt;&lt;div&gt;&lt;font style=&quot;font-size: 11px&quot;&gt;Memory&lt;/font&gt;&lt;/div&gt;" style="ellipse;whiteSpace=wrap;html=1;strokeColor=#36393d;strokeWidth=2;fillColor=#ffff88;fontSize=8;align=center;verticalAlign=top;labelPosition=center;verticalLabelPosition=bottom;" vertex="1" parent="1">
          <mxGeometry x="420" y="117.5" width="57" height="60" as="geometry" />
        </mxCell>
        <mxCell id="U6-LrCOOgE8kTnZUsPgH-8" value="&lt;font style=&quot;font-size: 11px&quot;&gt;Output Memory&lt;br&gt;&lt;/font&gt;" style="ellipse;whiteSpace=wrap;html=1;strokeColor=#36393d;strokeWidth=2;fillColor=#ffff88;fontSize=8;align=center;verticalAlign=top;labelPosition=center;verticalLabelPosition=bottom;" vertex="1" parent="1">
          <mxGeometry x="690" y="117.5" width="57" height="60" as="geometry" />
        </mxCell>
        <mxCell id="U6-LrCOOgE8kTnZUsPgH-10" style="edgeStyle=orthogonalEdgeStyle;rounded=0;orthogonalLoop=1;jettySize=auto;html=1;" edge="1" parent="1" source="U6-LrCOOgE8kTnZUsPgH-3" target="U6-LrCOOgE8kTnZUsPgH-8">
          <mxGeometry relative="1" as="geometry" />
        </mxCell>
      </root>
    </mxGraphModel>
  </diagram>
</mxfile>
